# AST/ASF file generated using VICON BodyLanguage
# -----------------------------------------------
:version 1.10
:name VICON
:units
  mass 1.0
  length 0.45
  angle deg
:documentation
   .ast/.asf automatically generated from VICON data using
   VICON BodyBuilder and BodyLanguage model FoxedUp or BRILLIANT.MOD
:root
   order TX TY TZ RX RY RZ
   axis XYZ
   position 0 0 0  
   orientation 0 0 0 
:bonedata
  begin
     id 1 
     name lhipjoint
     direction 0.575328 -0.747301 0.332475 
     length 2.40933 
     axis 0 0 0  XYZ
  end
  begin
     id 2 
     name lfemur
     direction 0.34202 -0.939693 0  
     length 7.31453  
     axis 0 0 20  XYZ
    dof rx ry rz
    limits (-160.0 20.0)
           (-70.0 70.0)
           (-60.0 70.0)
  end
  begin
     id 3 
     name ltibia
     direction 0.34202 -0.939693 0   
     length 7.82185   
     axis 0 0 20   XYZ
    dof rx
    limits (-10.0 170.0)
  end
  begin
     id 4 
     name lfoot
     direction 0.0795993 -0.218697 0.972541   
     length 2.19173   
     axis -90 7.62852e-016 20   XYZ
    dof rx rz
    limits (-45.0 90.0)
           (-70.0 20.0)
  end
  begin
     id 5 
     name ltoes
     direction 1.53537e-011 -4.21894e-011 1   
     length 1.10023   
     axis -90 7.62852e-016 20   XYZ
    dof rx
    limits (-90.0 20.0)
  end
  begin
     id 6 
     name rhipjoint
     direction -0.513884 -0.783789 0.348708   
     length 2.29716  
     axis 0 0 0  XYZ 
  end
  begin
     id 7 
     name rfemur
     direction -0.34202 -0.939693 0   
     length 7.59573   
     axis 0 0 -20   XYZ
    dof rx ry rz
    limits (-160.0 20.0)
           (-70.0 70.0)
           (-70.0 60.0)
  end
  begin
     id 8 
     name rtibia
     direction -0.34202 -0.939693 0   
     length 7.66402   
     axis 0 0 -20   XYZ
    dof rx
    limits (-10.0 170.0)
 end
 begin
     id 9 
     name rfoot
     direction -0.137793 -0.378584 0.915253   
     length 2.27056  
     axis -90 -7.62852e-016 -20   XYZ
    dof rx rz
    limits (-45.0 90.0)
           (-20.0 70.0)
  end
  begin
     id 10 
     name rtoes
     direction -1.53493e-011 -4.22159e-011 1   
     length 1.11766   
     axis -90 -7.62852e-016 -20   XYZ
    dof rx
    limits (-90.0 20.0)
  end
  begin
     id 11 
     name lowerback
     direction -0.00732775 0.998356 -0.05685   
     length 2.16513   
     axis 0 0 0   XYZ
    dof rx ry rz
    limits (-20.0 45.0)
           (-30.0 30.0)
           (-30.0 30.0)
  end
  begin
     id 12 
     name upperback
     direction 0.0218081 0.999627 -0.0164647   
     length 2.16755   
     axis 0 0 0   XYZ
    dof rx ry rz
    limits (-20.0 45.0)
           (-30.0 30.0)
           (-30.0 30.0)
  end
  begin
     id 13 
     name thorax
     direction 0.02365 0.999661 0.0108914   
     length 2.16932   
     axis 0 0 0   XYZ
    dof rx ry rz
    limits (-20.0 45.0)
           (-30.0 30.0)
           (-30.0 30.0)
  end
  begin
     id 14 
     name lowerneck
     direction -0.0523929 0.978385 0.200044   
     length 1.63877   
     axis 0 0 0   XYZ
    dof rx ry rz
    limits (-20.0 45.0)
           (-30.0 30.0)
           (-30.0 30.0)
  end
  begin
     id 15 
     name upperneck
     direction 0.0448674 0.981321 -0.187074   
     length 1.69014   
     axis 0 0 0   XYZ
    dof rx ry rz
    limits (-20.0 45.0)
           (-30.0 30.0)
           (-30.0 30.0)
  end
  begin
     id 16
     name head
     direction 0.0199089 0.996118 -0.0857429  
     length 1.70094  
     axis 0 0 0   XYZ
    dof rx ry rz
    limits (-20.0 45.0)
           (-30.0 30.0)
           (-30.0 30.0)
  end
  begin
     id 17 
     name lclavicle
     direction 0.940366 0.30191 -0.156722  
     length 3.37521  
     axis 0 0 0   XYZ
    dof ry rz
    limits (-20.0 10.0)
           (0.0 20.0)
  end
  begin
     id 18 
     name lhumerus
     direction 1 -4.4897e-011 -1.7911e-027   
     length 5.25287   
     axis 180 -30 -90   XYZ
    dof rx ry rz
    limits (-60.0 90.0)
           (-90.0 90.0)
           (-90.0 90.0)
  end
  begin
     id 19
     name lradius
     direction 1 -4.48951e-011 1.04424e-027   
     length 3.51014   
     axis 180 -30 -90   XYZ
    dof rx
    limits (-10.0 170.0)
  end
  begin
     id 20
     name lwrist
     direction 1 -4.48997e-011 -9.5942e-028   
     length 1.75507   
     axis 8.48502e-016 90 90   XYZ
    dof ry
    limits (-180.0 0.0)
 end
  begin
     id 21 
     name lhand
     direction 1 -4.48831e-011 -1.90777e-027   
     length 0.706179   
     axis 1.22306e-015 90 90   XYZ
    dof rx rz
    limits (-90.0 90.0)
           (-45.0 45.0)
  end
  begin
     id 22 
     name lfingers
     direction 1 -4.49108e-011 -3.85244e-027   
     length 0.569339   
     axis 2.44611e-015 90 90   XYZ
    dof rx
    limits (0.0 90.0)
  end
  begin
     id 23
     name lthumb
     direction 0.707107 -6.34953e-011 0.707107   
     length 0.817461   
     axis -90 45 -1.62303e-014   XYZ
    dof rx rz
    limits (-45.0 45.0)
           (-45.0 45.0)
  end
  begin
     id 24 
     name rclavicle
     direction -0.905329 0.382405 -0.184787   
     length 3.30787  
     axis 0 0 0   XYZ 
    dof ry rz
    limits (-10.0 20.0)
           (-20.0 0.0)
  end
  begin
     id 25 
     name rhumerus
     direction -1 -4.48953e-011 -9.15316e-029  
     length 5.28721   
     axis 180 30 90   XYZ
    dof rx ry rz
    limits (-90.0 60.0)
           (-90.0 90.0)
           (-90.0 90.0)
  end
  begin
     id 26 
     name rradius
     direction -1 -4.48987e-011 9.37824e-028   
     length 3.50544   
     axis 180 30 90   XYZ
    dof rx
    limits (-10.0 170.0)
  end
  begin
     id 27 
     name rwrist
     direction -1 -4.48967e-011 -9.58414e-028   
     length 1.75272   
     axis 8.48502e-016 -90 -90   XYZ
    dof ry
    limits (-180.0 0.0)
  end
  begin
     id 28
     name rhand
     direction -1 -4.48904e-011 -1.91266e-027   
     length 0.884996   
     axis 1.22306e-015 -90 -90   XYZ
    dof rx rz
    limits (-90.0 90.0)
           (-45.0 45.0)
  end
  begin
     id 29
     name rfingers
     direction -1 -4.4909e-011 -3.85015e-027   
     length 0.713507   
     axis 2.44611e-015 -90 -90   XYZ
    dof rx
    limits (0.0 90.0)
  end
  begin
     id 30
     name rthumb
     direction -0.707107 -6.34853e-011 0.707107   
     length 1.02446   
     axis -90 -45 1.62303e-014   XYZ
    dof rx rz
    limits (-45.0 45.0)
           (-45.0 45.0)
  end
:hierarchy
  begin
    root lhipjoint rhipjoint lowerback
    lhipjoint lfemur
    lfemur ltibia
    ltibia lfoot
    lfoot ltoes
    rhipjoint rfemur
    rfemur rtibia
    rtibia rfoot
    rfoot rtoes
    lowerback upperback
    upperback thorax
    thorax lowerneck lclavicle rclavicle
    lowerneck upperneck
    upperneck head
    lclavicle lhumerus
    lhumerus lradius
    lradius lwrist
    lwrist lhand lthumb
    lhand lfingers
    rclavicle rhumerus
    rhumerus rradius
    rradius rwrist
    rwrist rhand rthumb
    rhand rfingers
  end

#!OML:ASF F:\twosubjects\two\Thursday\Session 1\justin.ASF
:FULLY-SPECIFIED
:DEGREES
1
root -8.10419 17.6456 -8.03578 2.86663 3.82397 -1.39399
lowerback -0.534964 5.29652 1.22108
upperback 2.70412 7.0077 1.38543
thorax 3.05132 3.50792 0.966955
lowerneck -9.51363 19.4944 2.53172
upperneck 15.1474 26.7809 -3.0905
head 6.92326 12.8325 1.12053
rclavicle -9.77524e-014 2.70347e-014
rhumerus -41.0762 -9.80687 -65.2017
rradius 62.9663
rwrist -15.925
rhand -25.7757 11.3502
rfingers 7.12502
rthumb 0.76242 -18.6282
lclavicle -9.77524e-014 2.70347e-014
lhumerus -19.3116 -2.08298 93.5802
lradius 29.3014
lwrist -3.90265
lhand -0.935537 42.4463
lfingers 7.12502
lthumb 24.694 70.8727
rfemur -3.28288 -2.53495 20.9176
rtibia 50.9743
rfoot 8.71855 8.9416
rtoes -0.779308
lfemur -23.0007 2.20583 -19.8622
ltibia 27.0249
lfoot -9.05775 -6.39914
ltoes -17.6113
2
root -8.07576 17.6495 -7.8887 2.71405 3.68137 -1.21483
lowerback -0.554962 5.30263 0.999524
upperback 2.80343 7.02115 1.31824
thorax 3.14681 3.50996 1.02765
lowerneck -9.06469 19.391 2.73345
upperneck 14.7248 26.641 -3.44587
head 6.78685 12.775 0.921148
rclavicle -8.44338e-014 0
rhumerus -40.5842 -9.57319 -66.043
rradius 63.2168
rwrist -15.633
rhand -25.5699 11.4998
rfingers 7.12502
rthumb 0.961152 -18.4778
lclavicle -8.44338e-014 0
lhumerus -19.1329 -1.56255 93.1452
lradius 28.7525
lwrist -4.09342
lhand -2.86881 40.128
lfingers 7.12502
lthumb 22.8399 68.7957
rfemur -4.31813 -3.07561 20.6233
rtibia 53.1605
rfoot 10.4469 8.79374
rtoes -4.23726
lfemur -22.3748 2.27004 -20.1542
ltibia 27.2885
lfoot -9.64266 -5.9817
ltoes -16.5998
3
root -8.0542 17.6545 -7.74107 2.48517 3.64611 -0.592062
lowerback -0.336044 5.34019 0.295227
upperback 2.84896 7.09526 1.06861
thorax 3.0164 3.53385 1.13728
lowerneck -8.82491 19.2132 3.14074
upperneck 14.5803 26.368 -3.64996
head 6.77454 12.6561 0.768946
rclavicle -1.09033e-013 -3.57812e-015
rhumerus -40.2528 -9.48952 -66.9615
rradius 63.3315
rwrist -15.1605
rhand -25.6535 11.7062
rfingers 7.12502
rthumb 0.880391 -18.2717
lclavicle -1.09033e-013 -3.57812e-015
lhumerus -19.1968 -1.58641 92.6583
lradius 28.3315
lwrist -4.09559
lhand -2.10337 47.7463
lfingers 7.12502
lthumb 23.5742 76.3213
rfemur -5.32246 -3.81166 19.8557
rtibia 55.5143
rfoot 11.1123 8.6334
rtoes -10.7472
lfemur -21.3032 2.0919 -20.8711
ltibia 26.8784
lfoot -9.95017 -5.66519
ltoes -16.0344
4
root -8.02888 17.675 -7.59385 2.32824 3.63541 -0.0880328
lowerback -0.16589 5.28794 -0.148639
upperback 2.70141 7.03975 0.870986
thorax 2.74068 3.50038 1.14805
lowerneck -8.42941 19.1755 3.29688
upperneck 14.8689 26.2955 -3.44277
head 6.79276 12.6462 0.777758
rclavicle -3.36443e-014 -1.39149e-014
rhumerus -40.3555 -8.95629 -67.8022
rradius 63.4945
rwrist -14.7158
rhand -25.1876 12.2922
rfingers 7.12502
rthumb 1.33039 -17.6834
lclavicle -3.36443e-014 -1.39149e-014
lhumerus -19.685 -1.10633 92.1765
lradius 27.9873
lwrist -4.45646
lhand -1.71375 42.4206
lfingers 7.12502
lthumb 23.9479 70.9471
rfemur -6.5785 -3.92431 19.0924
rtibia 57.8058
rfoot 12.0918 6.57789
rtoes -6.50271
lfemur -20.3447 1.78247 -21.4478
ltibia 26.5552
lfoot -10.2492 -5.21511
ltoes -15.7352
5
root -7.99738 17.6947 -7.45072 2.25692 3.74711 0.143893
lowerback -0.107356 5.19156 -0.310503
upperback 2.6667 6.91544 0.803898
thorax 2.66335 3.43619 1.15677
lowerneck -8.73934 19.0926 3.04313
upperneck 15.2712 26.181 -3.07205
head 6.88536 12.5862 0.943033
rclavicle 1.15295e-014 7.15625e-015
rhumerus -39.9643 -8.44527 -68.5231
rradius 63.3821
rwrist -14.0949
rhand -24.3303 13.3778
rfingers 7.12502
rthumb 2.15837 -16.591
lclavicle 1.15295e-014 7.15625e-015
lhumerus -19.7508 -0.527912 91.8658
lradius 27.4495
lwrist -4.84838
lhand -3.652 42.0163
lfingers 7.12502
lthumb 22.0881 70.7748
rfemur -7.92109 -4.24631 18.5876
rtibia 60.0474
rfoot 12.3602 4.37477
rtoes -2.78803
lfemur -19.4536 1.37183 -21.752
ltibia 26.1215
lfoot -10.386 -4.77324
ltoes -14.0455
